<svg width="87" height="91" viewBox="0 0 87 91" fill="none" xmlns="http://www.w3.org/2000/svg">
<path d="M17.1125 37.3555H6.37082L1 28.1486L6.37082 18.9417H17.1125L22.4833 28.1486L17.1125 37.3555ZM8.00542 34.2865H15.2444L18.9806 27.9125L15.2444 21.5385H8.00542L4.2692 27.9125L8.00542 34.2865Z" fill="#042C5B" stroke="#042C5B" stroke-width="0.7"/>
<path d="M33.4568 22.2467H24.5833L20.1465 14.4563L24.5833 6.66583H33.4568L37.8936 14.4563L33.4568 22.2467ZM26.2178 19.1778H31.5887L34.3908 14.4563L31.5887 9.7348H25.9843L23.1822 14.4563L26.2178 19.1778Z" fill="#042C5B" stroke="#042C5B" stroke-width="0.7"/>
<path d="M85.3002 41.8409L66.619 22.9549C66.3855 22.7189 66.152 22.7189 65.685 22.7189H39.5314C39.0644 22.7189 38.8309 22.9549 38.5974 23.191L19.9162 42.077C19.6827 42.313 19.4492 42.5491 19.4492 43.0213V69.6976C19.4492 69.9337 19.4492 70.1698 19.6827 70.1698C19.6827 70.4059 19.9162 70.4059 19.9162 70.6419L38.5974 89.5279C38.8309 89.7639 38.8309 89.764 39.0644 89.764C39.2979 89.764 39.2979 90 39.5314 90H65.9185C66.152 90 66.3855 90 66.3855 89.764C66.619 89.764 66.619 89.5279 66.8526 89.5279L85.5337 70.6419C85.7672 70.4059 85.7672 70.4059 85.7672 70.1698C85.7672 69.9337 86.0007 69.9337 86.0007 69.6976V42.7852C85.7672 42.5491 85.5337 42.077 85.3002 41.8409ZM66.152 85.9868L62.8828 77.9602L74.0915 66.6287L82.031 69.9337L66.152 85.9868ZM23.1854 69.9337L31.1249 66.6287L42.3336 77.9602L39.0644 85.9868L23.1854 69.9337ZM22.0179 44.9099L29.9573 48.2149V64.0319L22.0179 67.3369V44.9099ZM38.8309 26.4961L42.1001 34.5226L30.8914 45.8541L22.9519 42.5491L38.8309 26.4961ZM82.031 42.313L74.0915 45.6181L62.8828 34.2865L66.152 26.26L82.031 42.313ZM60.7812 76.3077H44.2017L32.526 64.504V47.7427L44.2017 35.939H60.7812L72.4569 47.7427V64.504L60.7812 76.3077ZM60.3142 33.3422H44.6687L41.3995 25.3157H63.8169L60.3142 33.3422ZM44.6687 78.9045H60.3142L63.5834 86.9311H41.166L44.6687 78.9045ZM75.0255 64.0319V48.2149L82.965 44.9099V67.573L75.0255 64.0319Z" fill="#042C5B" stroke="#042C5B" stroke-width="0.7"/>
<path d="M14.7781 11.8594H8.47318L5.4375 6.42971L8.47318 1H14.7781L17.8137 6.42971L14.7781 11.8594ZM10.3413 8.79045H13.1435L14.5445 6.42971L13.1435 4.06896H10.3413L8.94021 6.42971L10.3413 8.79045Z" fill="#042C5B" stroke="#042C5B" stroke-width="0.7"/>
</svg>
