<svg width="93" height="77" viewBox="0 0 93 77" fill="none" xmlns="http://www.w3.org/2000/svg">
<path d="M91.8654 21.6912L91.8727 21.6992L91.8804 21.7069C92.4461 22.2734 92.461 23.0051 92.0952 23.5848C76.3767 39.8361 64.9566 51.7823 48.987 68.5388C48.4172 68.8949 47.6754 68.8977 47.1029 68.5471C45.9324 67.1474 44.5599 65.7541 43.3758 64.5667C44.3484 63.3321 45.1649 61.9468 45.8268 60.413L47.6023 63.5744L48.044 64.3609L48.4769 63.5696L58.6369 44.9984L58.7691 44.7567L58.6355 44.5159L48.4755 26.1991L48.0342 25.4035L47.5991 26.2025L41.8229 36.809C41.1302 36.12 40.516 35.5314 39.7918 34.9565L45.4289 24.6463L45.8335 23.9064H44.9902H27.2102H26.3738L26.7699 24.6432L29.831 30.3371C28.874 30.1726 27.8176 30.037 26.748 30.0151L23.5861 24.1685L23.4443 23.9064H23.1462H9.43025H8.27578L9.06556 24.7485L16.4821 32.656C15.7719 33.0183 15.0452 33.4133 14.3153 33.9225C9.55238 28.9695 6.90245 26.2387 5.52013 24.8347C4.81846 24.122 4.43454 23.7421 4.26674 23.5885C4.23289 23.5575 4.18383 23.5131 4.13747 23.4808C3.92507 23.2311 3.84223 22.9039 3.8649 22.5634C3.89037 22.1807 4.04457 21.8586 4.19608 21.7069L4.20376 21.6992L4.21109 21.6912C5.42826 20.3613 8.86929 16.5193 12.4645 12.5052C17.1828 7.23734 22.1666 1.67289 22.7381 1.10048C22.9047 0.933605 23.2878 0.738403 23.6542 0.738403H72.4222C72.7887 0.738403 73.1718 0.933604 73.3384 1.10048C74.0832 1.84644 79.4286 7.82055 84.2606 13.2208C87.6101 16.9643 90.7129 20.432 91.8654 21.6912ZM78.9055 11.7483L79.1812 11.4108L78.8845 11.0916L72.0265 3.71398L71.7047 3.3678L71.3409 3.66964L62.4509 11.0472L62.0164 11.4078L62.4269 11.7955L71.3169 20.1907L71.7076 20.5596L72.0475 20.1435L78.9055 11.7483ZM67.0882 21.0904H68.36L67.4288 20.2243L60.3168 13.6099L59.9822 13.2987L59.6422 13.604L52.2762 20.2184L51.3051 21.0904H52.6102H67.0882ZM66.8947 4.18873L67.9933 3.3H66.5802H53.1182H51.6628L52.811 4.19444L59.669 9.53684L59.9821 9.78078L60.2907 9.53113L66.8947 4.18873ZM43.0187 4.18873L44.1173 3.3H42.7042H29.2422H27.7868L28.935 4.19444L35.793 9.53684L36.1061 9.78078L36.4147 9.53113L43.0187 4.18873ZM8.54749 20.2594L7.81354 21.0904H8.92225H20.0982H21.1438L20.4875 20.2765L15.1535 13.6621L14.7816 13.201L14.3895 13.645L8.54749 20.2594ZM24.029 20.1435L24.3689 20.5596L24.7595 20.1907L33.6495 11.7955L34.0601 11.4078L33.6256 11.0472L24.7356 3.66964L24.3718 3.3678L24.05 3.71398L17.192 11.0916L16.8953 11.4108L17.171 11.7483L24.029 20.1435ZM28.1462 20.2184L27.1751 21.0904H28.4802H43.2122H44.5174L43.5463 20.2184L36.1803 13.604L35.8462 13.304L35.5122 13.604L28.1462 20.2184ZM38.5803 11.0429L38.1283 11.4075L38.5561 11.8003L47.7001 20.1955L48.0382 20.506L48.3764 20.1955L57.5204 11.8003L57.9482 11.4075L57.4962 11.0429L48.3522 3.66527L48.0382 3.41195L47.7243 3.66527L38.5803 11.0429ZM51.0862 23.652H50.2498L50.6459 24.3888L59.5359 40.9248L59.9762 41.7439L60.4166 40.9248L69.3066 24.3888L69.7027 23.652H68.8662H51.0862ZM54.7053 57.2503L55.5174 57.8178L61.8674 50.949L62.1217 50.674L61.9292 50.3526L60.4052 47.8086L59.9423 47.0359L59.5313 47.8375L54.7053 57.2503ZM63.86 48.3134L64.1924 48.896L64.6558 48.411L87.2617 24.7518L88.0695 23.9064H86.9002H73.1842H72.8869L72.7449 24.1677L61.8229 44.2653L61.69 44.5099L61.828 44.7518L63.86 48.3134ZM75.335 20.2765L74.6787 21.0904H75.7242H86.9002H88.0089L87.275 20.2594L81.433 13.645L81.0409 13.201L80.669 13.6621L75.335 20.2765Z" fill="#042C5B" stroke="#042C5B"/>
<path d="M9.43359 51.3727C9.43359 41.9599 17.0536 34.5823 26.1976 34.5823C35.3416 34.5823 42.9616 42.2143 42.9616 51.3727C42.9616 60.5311 35.3416 68.1631 26.1976 68.1631C17.0536 68.1631 9.43359 60.7855 9.43359 51.3727ZM12.9896 51.3727C12.9896 58.7503 19.0856 64.8559 26.4516 64.8559C33.8176 64.8559 39.9136 58.7503 39.9136 51.3727C39.9136 43.9951 33.8176 38.1439 26.4516 38.1439C19.0856 38.1439 12.9896 43.9951 12.9896 51.3727Z" fill="#042C5B" stroke="#042C5B" stroke-width="0.8"/>
<path d="M1.81173 75.5408C1.04973 74.7776 1.04973 73.76 1.81173 72.9968L14.0037 60.7856C14.7657 60.2768 15.7817 60.2768 16.2897 60.7856C17.0517 61.5488 17.0517 62.5664 16.2897 63.3296L4.09773 75.5408C3.84373 75.7952 3.33573 76.0496 2.82773 76.0496C2.57373 76.0496 2.31973 76.0496 1.81173 75.5408Z" fill="#042C5B" stroke="#042C5B" stroke-width="0.8"/>
</svg>
