<svg width="90" height="89" viewBox="0 0 90 89" fill="none" xmlns="http://www.w3.org/2000/svg">
<path d="M44.911 0.100006C36.1196 0.100006 27.5256 2.70695 20.2159 7.59118C12.9061 12.4754 7.20883 19.4176 3.84451 27.5397C0.480197 35.6619 -0.400061 44.5993 1.31505 53.2218C3.03016 61.8442 7.26362 69.7645 13.4801 75.9809C19.6965 82.1973 27.6167 86.4308 36.2392 88.1459C44.8616 89.861 53.7991 88.9808 61.9212 85.6165C70.0434 82.2521 76.9856 76.5549 81.8698 69.2451C86.754 61.9353 89.361 53.3414 89.361 44.55C89.3583 32.7619 84.6743 21.4575 76.3389 13.122C68.0035 4.78662 56.699 0.102657 44.911 0.100006ZM44.911 84.37C37.0353 84.37 29.3365 82.0346 22.7882 77.6591C16.2398 73.2836 11.136 67.0646 8.12207 59.7885C5.10819 52.5123 4.31962 44.5058 5.85609 36.7815C7.39255 29.0572 11.185 21.9619 16.754 16.393C22.3229 10.8241 29.4181 7.0316 37.1425 5.49514C44.8668 3.95867 52.8733 4.74724 60.1494 7.76112C67.4256 10.775 73.6446 15.8788 78.0201 22.4272C82.3956 28.9756 84.731 36.6744 84.731 44.55C84.7151 55.1061 80.5147 65.2252 73.0504 72.6895C65.5862 80.1537 55.467 84.3541 44.911 84.37Z" fill="black"/>
<path d="M47.1297 42.7V30C49.5485 30.3948 51.8172 31.4307 53.6997 33C53.8763 33.1642 54.0835 33.2919 54.3095 33.376C54.5355 33.46 54.7759 33.4988 55.0169 33.4899C55.2578 33.4811 55.4947 33.4249 55.714 33.3246C55.9332 33.2242 56.1305 33.0816 56.2947 32.905C56.4588 32.7284 56.5866 32.5211 56.6707 32.2951C56.7547 32.0691 56.7935 31.8288 56.7846 31.5878C56.7758 31.3469 56.7196 31.11 56.6192 30.8907C56.5189 30.6715 56.3763 30.4742 56.1997 30.31C53.6572 28.0617 50.4898 26.6419 47.1197 26.24V22.88C47.1197 22.3893 46.9248 21.9188 46.5778 21.5718C46.2309 21.2249 45.7603 21.03 45.2697 21.03C44.779 21.03 44.3085 21.2249 43.9615 21.5718C43.6146 21.9188 43.4197 22.3893 43.4197 22.88V26.21C37.1197 26.86 32.6797 31.03 32.6797 36.49C32.6797 42.6 39.6797 44.55 43.4197 45.49V59.55C40.5497 58.9 36.5697 57.23 34.9897 55.75C34.6462 55.4065 34.1804 55.2136 33.6947 55.2136C33.209 55.2136 32.7431 55.4065 32.3997 55.75C32.0562 56.0935 31.8633 56.5593 31.8633 57.045C31.8633 57.5307 32.0562 57.9965 32.3997 58.34C34.6197 60.56 39.8097 62.69 43.3997 63.25V66.31C43.3997 66.8006 43.5946 67.2712 43.9415 67.6181C44.2885 67.9651 44.759 68.16 45.2497 68.16C45.7403 68.16 46.2109 67.9651 46.5578 67.6181C46.9048 67.2712 47.0997 66.8006 47.0997 66.31V63.31C51.8197 62.75 57.8397 59.98 57.8397 53.68C57.9997 48.81 54.0797 44.83 47.1297 42.7ZM43.4297 41.7C40.4297 40.87 36.4297 39.48 36.4297 36.51C36.4297 32.62 39.8597 30.51 43.4297 29.94V41.68V41.7ZM47.1297 59.7V46.59C50.4597 47.79 54.1297 50.02 54.1297 53.81C54.2597 57.89 49.7297 59.18 47.1297 59.64V59.7Z" fill="black"/>
</svg>
