<svg width="63" height="63" viewBox="0 0 63 63" fill="none" xmlns="http://www.w3.org/2000/svg">
<path d="M43.3371 7.41607C39.8747 3.96274 35.4891 1.58229 30.7069 0.560585C25.9247 -0.461122 20.9492 -0.0806509 16.378 1.65631C11.8067 3.39327 7.83408 6.41287 4.93706 10.3525C2.04004 14.2921 0.341848 18.9843 0.0464079 23.8654C-0.249033 28.7466 0.870842 33.6093 3.27155 37.8696C5.67226 42.1299 9.25173 45.6066 13.5801 47.8822C17.9085 50.1578 22.8017 51.1356 27.6723 50.6982C32.5428 50.2607 37.1835 48.4266 41.0371 45.4161L57.7371 62.0161C58.3148 62.4494 59.0294 62.6597 59.7497 62.6085C60.4701 62.5573 61.1477 62.248 61.6584 61.7374C62.169 61.2267 62.4783 60.5491 62.5295 59.8287C62.5807 59.1084 62.3703 58.3938 61.9371 57.8161L45.3371 41.1161C49.2109 36.2379 51.1489 30.102 50.7798 23.8837C50.4108 17.6654 47.7607 11.8018 43.3371 7.41607ZM39.0371 39.1161C37.2344 40.9272 35.0918 42.3643 32.7321 43.3449C30.3725 44.3256 27.8424 44.8304 25.2871 44.8304C22.7318 44.8304 20.2016 44.3256 17.842 43.3449C15.4824 42.3643 13.3397 40.9272 11.5371 39.1161C9.71649 37.3317 8.27362 35.1992 7.29436 32.8455C6.31511 30.4919 5.81951 27.9652 5.83706 25.4161C5.83706 20.2443 7.89152 15.2844 11.5485 11.6275C15.2054 7.97052 20.1653 5.91607 25.3371 5.91607C30.5088 5.91607 35.4687 7.97052 39.1256 11.6275C42.7826 15.2844 44.8371 20.2443 44.8371 25.4161C44.8359 27.9715 44.322 30.5007 43.3258 32.854C42.3295 35.2072 40.8711 37.3366 39.0371 39.1161Z" fill="black"/>
</svg>
