<svg width="16" height="17" viewBox="0 0 16 17" fill="none" xmlns="http://www.w3.org/2000/svg">
<g clip-path="url(#clip0)">
<path d="M14.4 0H1.6C0.72 0 0 0.731997 0 1.62666V14.6399C0 15.5346 0.72 16.2666 1.6 16.2666H14.4C15.28 16.2666 16 15.5346 16 14.6399V1.62666C16 0.731997 15.28 0 14.4 0ZM8 4.87998C9.76 4.87998 11.2 6.34398 11.2 8.1333C11.2 9.92263 9.76 11.3866 8 11.3866C6.24 11.3866 4.8 9.92263 4.8 8.1333C4.8 6.34398 6.24 4.87998 8 4.87998ZM2 14.6399C1.76 14.6399 1.6 14.4773 1.6 14.2333V7.31997H3.28C3.2 7.56397 3.2 7.8893 3.2 8.1333C3.2 10.8173 5.36 13.0133 8 13.0133C10.64 13.0133 12.8 10.8173 12.8 8.1333C12.8 7.8893 12.8 7.56397 12.72 7.31997H14.4V14.2333C14.4 14.4773 14.24 14.6399 14 14.6399H2ZM14.4 3.65999C14.4 3.90398 14.24 4.06665 14 4.06665H12.4C12.16 4.06665 12 3.90398 12 3.65999V2.03333C12 1.78933 12.16 1.62666 12.4 1.62666H14C14.24 1.62666 14.4 1.78933 14.4 2.03333V3.65999Z" fill="#747474"/>
</g>
<defs>
<clipPath id="clip0">
<rect width="16" height="16.2666" fill="white"/>
</clipPath>
</defs>
</svg>
