<svg width="22" height="22" viewBox="0 0 22 22" fill="none" xmlns="http://www.w3.org/2000/svg">
<path d="M11.0448 9.16675V13.0626H16.4531C15.949 15.5376 13.8406 16.9584 11.0448 16.9584C8.38646 16.9584 6.18646 15.2626 5.40729 12.8792L2.01562 15.4917C3.61979 18.7917 7.05729 21.0834 11.0448 21.0834C16.0865 21.0834 20.6698 17.4167 20.6698 11.0001C20.6698 10.4042 20.5781 9.76258 20.4406 9.16675H11.0448Z" fill="#34A853"/>
<path d="M11.0469 9.16675V13.0626H16.4552C16.1802 14.3917 15.4469 15.4001 14.3927 16.0876L17.601 18.5626C19.4344 16.8209 20.6719 14.3001 20.6719 11.0001C20.6719 10.4042 20.5802 9.76258 20.4427 9.16675H11.0469Z" fill="#4285F4"/>
<path d="M5.08594 11.0459C5.08594 10.4042 5.1776 9.76253 5.40677 9.1667L2.0151 6.5542C1.37344 7.88337 0.960938 9.39587 0.960938 11C0.960938 12.6042 1.3276 14.1167 2.0151 15.4459L5.40677 12.8334C5.1776 12.3292 5.08594 11.6875 5.08594 11.0459Z" fill="#FBBC05"/>
<path d="M1.97266 6.55425L5.36432 9.16675C6.14349 6.78341 8.38932 5.08758 11.0018 5.08758C12.4227 5.08758 13.706 5.59175 14.7143 6.41675L17.6477 3.48341C15.906 1.87925 13.6143 0.916748 11.0477 0.916748C7.06016 0.916748 3.62266 3.20841 1.97266 6.55425Z" fill="#EA4335"/>
</svg>
