<svg width="105" height="12" viewBox="0 0 105 12" fill="none" xmlns="http://www.w3.org/2000/svg">
<path d="M0.265714 5.35117C-0.258407 4.9097 0.0450317 4.06689 0.720873 4.02676L4.0587 3.79933C4.2518 3.78595 4.4311 3.66555 4.51386 3.47826L5.78278 0.468227C5.92071 0.160535 6.21035 0 6.5 0C6.78965 0 7.07929 0.160535 7.21722 0.468227L8.48615 3.47826C8.55511 3.65217 8.73441 3.77257 8.9413 3.79933L12.2791 4.02676C12.955 4.06689 13.2584 4.9097 12.7343 5.35117L10.1137 7.42475C9.96196 7.54515 9.893 7.74582 9.93437 7.94649L10.7206 11.0769C10.8309 11.5853 10.4447 12 9.98955 12C9.85162 12 9.71369 11.9599 9.58956 11.8796L6.73448 10.1806C6.56896 10.0736 6.34828 10.0736 6.18277 10.1806L3.35527 11.8796C3.23114 11.9599 3.07942 12 2.94149 12C2.48633 12 2.07255 11.5853 2.21048 11.0769L2.99666 7.94649C3.03804 7.7592 2.98287 7.55853 2.81736 7.43813L0.265714 5.35117Z" fill="#D9A900"/>
<path d="M23.2657 5.35117C22.7416 4.9097 23.045 4.06689 23.7209 4.02676L27.0587 3.79933C27.2518 3.78595 27.4311 3.66555 27.5139 3.47826L28.7828 0.468227C28.9207 0.160535 29.2104 0 29.5 0C29.7896 0 30.0793 0.160535 30.2172 0.468227L31.4861 3.47826C31.5551 3.65217 31.7344 3.77257 31.9413 3.79933L35.2791 4.02676C35.955 4.06689 36.2584 4.9097 35.7343 5.35117L33.1137 7.42475C32.962 7.54515 32.893 7.74582 32.9344 7.94649L33.7206 11.0769C33.8309 11.5853 33.4447 12 32.9895 12C32.8516 12 32.7137 11.9599 32.5896 11.8796L29.7345 10.1806C29.569 10.0736 29.3483 10.0736 29.1828 10.1806L26.3553 11.8796C26.2311 11.9599 26.0794 12 25.9415 12C25.4863 12 25.0726 11.5853 25.2105 11.0769L25.9967 7.94649C26.038 7.7592 25.9829 7.55853 25.8174 7.43813L23.2657 5.35117Z" fill="#D9A900"/>
<path d="M46.2657 5.35117C45.7416 4.9097 46.045 4.06689 46.7209 4.02676L50.0587 3.79933C50.2518 3.78595 50.4311 3.66555 50.5139 3.47826L51.7828 0.468227C51.9207 0.160535 52.2104 0 52.5 0C52.7896 0 53.0793 0.160535 53.2172 0.468227L54.4861 3.47826C54.5551 3.65217 54.7344 3.77257 54.9413 3.79933L58.2791 4.02676C58.955 4.06689 59.2584 4.9097 58.7343 5.35117L56.1137 7.42475C55.962 7.54515 55.893 7.74582 55.9344 7.94649L56.7206 11.0769C56.8309 11.5853 56.4447 12 55.9895 12C55.8516 12 55.7137 11.9599 55.5896 11.8796L52.7345 10.1806C52.569 10.0736 52.3483 10.0736 52.1828 10.1806L49.3553 11.8796C49.2311 11.9599 49.0794 12 48.9415 12C48.4863 12 48.0726 11.5853 48.2105 11.0769L48.9967 7.94649C49.038 7.7592 48.9829 7.55853 48.8174 7.43813L46.2657 5.35117Z" fill="#D9A900"/>
<path d="M69.2657 5.35117C68.7416 4.9097 69.045 4.06689 69.7209 4.02676L73.0587 3.79933C73.2518 3.78595 73.4311 3.66555 73.5139 3.47826L74.7828 0.468227C74.9207 0.160535 75.2104 0 75.5 0C75.7896 0 76.0793 0.160535 76.2172 0.468227L77.4861 3.47826C77.5551 3.65217 77.7344 3.77257 77.9413 3.79933L81.2791 4.02676C81.955 4.06689 82.2584 4.9097 81.7343 5.35117L79.1137 7.42475C78.962 7.54515 78.893 7.74582 78.9344 7.94649L79.7206 11.0769C79.8309 11.5853 79.4447 12 78.9895 12C78.8516 12 78.7137 11.9599 78.5896 11.8796L75.7345 10.1806C75.569 10.0736 75.3483 10.0736 75.1828 10.1806L72.3553 11.8796C72.2311 11.9599 72.0794 12 71.9415 12C71.4863 12 71.0726 11.5853 71.2105 11.0769L71.9967 7.94649C72.038 7.7592 71.9829 7.55853 71.8174 7.43813L69.2657 5.35117Z" fill="#D9A900"/>
<path d="M92.2657 5.35117C91.7416 4.9097 92.045 4.06689 92.7209 4.02676L96.0587 3.79933C96.2518 3.78595 96.4311 3.66555 96.5139 3.47826L97.7828 0.468227C97.9207 0.160535 98.2104 0 98.5 0C98.7896 0 99.0793 0.160535 99.2172 0.468227L100.486 3.47826C100.555 3.65217 100.734 3.77257 100.941 3.79933L104.279 4.02676C104.955 4.06689 105.258 4.9097 104.734 5.35117L102.114 7.42475C101.962 7.54515 101.893 7.74582 101.934 7.94649L102.721 11.0769C102.831 11.5853 102.445 12 101.99 12C101.852 12 101.714 11.9599 101.59 11.8796L98.7345 10.1806C98.569 10.0736 98.3483 10.0736 98.1828 10.1806L95.3553 11.8796C95.2311 11.9599 95.0794 12 94.9415 12C94.4863 12 94.0726 11.5853 94.2105 11.0769L94.9967 7.94649C95.038 7.7592 94.9829 7.55853 94.8174 7.43813L92.2657 5.35117Z" fill="#D9A900"/>
</svg>
