<svg width="20" height="14" viewBox="0 0 20 14" fill="none" xmlns="http://www.w3.org/2000/svg">
<path d="M20 1.65642C19.2639 1.93751 18.4741 2.12814 17.6442 2.21324C18.4915 1.77597 19.1402 1.08239 19.4476 0.258473C18.6527 0.663419 17.7754 0.957461 16.8406 1.11686C16.092 0.428658 15.0271 0 13.8461 0C11.5803 0 9.74312 1.5832 9.74312 3.53473C9.74312 3.81151 9.77936 4.08184 9.84936 4.34034C6.44001 4.19277 3.41684 2.78514 1.39347 0.646183C1.03977 1.16747 0.838563 1.77487 0.838563 2.42325C0.838563 3.64997 1.56343 4.73236 2.66324 5.36562C1.99085 5.34624 1.35847 5.18684 0.804838 4.92189V4.96605C0.804838 6.67849 2.21958 8.10766 4.09546 8.43294C3.75177 8.51264 3.38935 8.5568 3.01442 8.5568C2.74948 8.5568 2.49327 8.53418 2.24206 8.49109C2.76445 9.89659 4.27919 10.9187 6.07387 10.9467C4.67037 11.8944 2.90069 12.4577 0.978564 12.4577C0.647387 12.4577 0.321177 12.4405 0 12.4093C1.81592 13.4141 3.97177 14 6.28883 14C13.8362 14 17.9617 8.61281 17.9617 3.94077L17.9479 3.48305C18.754 2.98759 19.4513 2.3651 20 1.65642Z" fill="#747474"/>
</svg>
